G04 EAGLE Gerber RS-274X export*
G75*
%MOMM*%
%FSLAX34Y34*%
%LPD*%
%INSolder stop mask SOL*%
%IPPOS*%
%AMOC8*
5,1,8,0,0,1.08239X$1,22.5*%
G01*
%ADD10C,3.683000*%
%ADD11C,1.854200*%
%ADD12R,1.854200X1.854200*%
%ADD13C,1.524000*%
%ADD14C,2.082800*%
%ADD15C,2.032000*%
%ADD16C,1.879600*%
%ADD17C,3.505200*%
%ADD18P,1.649562X8X22.500000*%

G36*
X611068Y764690D02*
X611068Y764690D01*
X611111Y764701D01*
X611177Y764707D01*
X612807Y765119D01*
X612847Y765137D01*
X612911Y765155D01*
X614444Y765843D01*
X614481Y765868D01*
X614541Y765897D01*
X615931Y766841D01*
X615963Y766872D01*
X616017Y766910D01*
X617223Y768081D01*
X617249Y768118D01*
X617295Y768165D01*
X618279Y769527D01*
X618298Y769568D01*
X618335Y769622D01*
X619068Y771135D01*
X619080Y771178D01*
X619107Y771238D01*
X619565Y772855D01*
X619570Y772900D01*
X619586Y772964D01*
X619757Y774636D01*
X619753Y774684D01*
X619757Y774763D01*
X619591Y776435D01*
X619579Y776478D01*
X619570Y776544D01*
X619116Y778161D01*
X619097Y778202D01*
X619077Y778265D01*
X618349Y779779D01*
X618323Y779815D01*
X618293Y779874D01*
X617312Y781239D01*
X617280Y781270D01*
X617240Y781323D01*
X616038Y782497D01*
X616001Y782522D01*
X615953Y782567D01*
X614565Y783514D01*
X614524Y783532D01*
X614468Y783568D01*
X612937Y784260D01*
X612894Y784271D01*
X612833Y784297D01*
X611204Y784712D01*
X611160Y784715D01*
X611095Y784730D01*
X609420Y784856D01*
X609373Y784852D01*
X609301Y784854D01*
X607466Y784649D01*
X607419Y784635D01*
X607344Y784623D01*
X605583Y784063D01*
X605541Y784040D01*
X605469Y784014D01*
X603852Y783121D01*
X603814Y783091D01*
X603749Y783051D01*
X602337Y781860D01*
X602306Y781823D01*
X602250Y781771D01*
X601097Y780327D01*
X601075Y780285D01*
X601030Y780223D01*
X600181Y778582D01*
X600167Y778536D01*
X600135Y778467D01*
X599622Y776692D01*
X599617Y776644D01*
X599600Y776569D01*
X599443Y774729D01*
X599447Y774685D01*
X599443Y774620D01*
X599603Y772789D01*
X599616Y772743D01*
X599624Y772682D01*
X599624Y772680D01*
X599626Y772667D01*
X600140Y770903D01*
X600161Y770859D01*
X600186Y770787D01*
X601035Y769157D01*
X601064Y769119D01*
X601103Y769053D01*
X602253Y767620D01*
X602289Y767588D01*
X602340Y767531D01*
X603748Y766350D01*
X603789Y766326D01*
X603850Y766280D01*
X605462Y765396D01*
X605507Y765381D01*
X605576Y765347D01*
X607329Y764795D01*
X607376Y764789D01*
X607450Y764769D01*
X609277Y764570D01*
X609323Y764573D01*
X609392Y764567D01*
X611068Y764690D01*
G37*
G36*
X572968Y891690D02*
X572968Y891690D01*
X573011Y891701D01*
X573077Y891707D01*
X574707Y892119D01*
X574747Y892137D01*
X574811Y892155D01*
X576344Y892843D01*
X576381Y892868D01*
X576441Y892897D01*
X577831Y893841D01*
X577863Y893872D01*
X577917Y893910D01*
X579123Y895081D01*
X579149Y895118D01*
X579195Y895165D01*
X580179Y896527D01*
X580198Y896568D01*
X580235Y896622D01*
X580968Y898135D01*
X580980Y898178D01*
X581007Y898238D01*
X581465Y899855D01*
X581470Y899900D01*
X581486Y899964D01*
X581657Y901636D01*
X581653Y901684D01*
X581657Y901763D01*
X581491Y903435D01*
X581479Y903478D01*
X581470Y903544D01*
X581016Y905161D01*
X580997Y905202D01*
X580977Y905265D01*
X580249Y906779D01*
X580223Y906815D01*
X580193Y906874D01*
X579212Y908239D01*
X579180Y908270D01*
X579140Y908323D01*
X577938Y909497D01*
X577901Y909522D01*
X577853Y909567D01*
X576465Y910514D01*
X576424Y910532D01*
X576368Y910568D01*
X574837Y911260D01*
X574794Y911271D01*
X574733Y911297D01*
X573104Y911712D01*
X573060Y911715D01*
X572995Y911730D01*
X571320Y911856D01*
X571273Y911852D01*
X571201Y911854D01*
X569366Y911649D01*
X569319Y911635D01*
X569244Y911623D01*
X567483Y911063D01*
X567441Y911040D01*
X567369Y911014D01*
X565752Y910121D01*
X565714Y910091D01*
X565649Y910051D01*
X564237Y908860D01*
X564206Y908823D01*
X564150Y908771D01*
X562997Y907327D01*
X562975Y907285D01*
X562930Y907223D01*
X562081Y905582D01*
X562067Y905536D01*
X562035Y905467D01*
X561522Y903692D01*
X561517Y903644D01*
X561500Y903569D01*
X561343Y901729D01*
X561347Y901685D01*
X561343Y901620D01*
X561503Y899789D01*
X561516Y899743D01*
X561524Y899682D01*
X561524Y899680D01*
X561526Y899667D01*
X562040Y897903D01*
X562061Y897859D01*
X562086Y897787D01*
X562935Y896157D01*
X562964Y896119D01*
X563003Y896053D01*
X564153Y894620D01*
X564189Y894588D01*
X564240Y894531D01*
X565648Y893350D01*
X565689Y893326D01*
X565750Y893280D01*
X567362Y892396D01*
X567407Y892381D01*
X567476Y892347D01*
X569229Y891795D01*
X569276Y891789D01*
X569350Y891769D01*
X571177Y891570D01*
X571223Y891573D01*
X571292Y891567D01*
X572968Y891690D01*
G37*
G36*
X611068Y891690D02*
X611068Y891690D01*
X611111Y891701D01*
X611177Y891707D01*
X612807Y892119D01*
X612847Y892137D01*
X612911Y892155D01*
X614444Y892843D01*
X614481Y892868D01*
X614541Y892897D01*
X615931Y893841D01*
X615963Y893872D01*
X616017Y893910D01*
X617223Y895081D01*
X617249Y895118D01*
X617295Y895165D01*
X618279Y896527D01*
X618298Y896568D01*
X618335Y896622D01*
X619068Y898135D01*
X619080Y898178D01*
X619107Y898238D01*
X619565Y899855D01*
X619570Y899900D01*
X619586Y899964D01*
X619757Y901636D01*
X619753Y901684D01*
X619757Y901763D01*
X619591Y903435D01*
X619579Y903478D01*
X619570Y903544D01*
X619116Y905161D01*
X619097Y905202D01*
X619077Y905265D01*
X618349Y906779D01*
X618323Y906815D01*
X618293Y906874D01*
X617312Y908239D01*
X617280Y908270D01*
X617240Y908323D01*
X616038Y909497D01*
X616001Y909522D01*
X615953Y909567D01*
X614565Y910514D01*
X614524Y910532D01*
X614468Y910568D01*
X612937Y911260D01*
X612894Y911271D01*
X612833Y911297D01*
X611204Y911712D01*
X611160Y911715D01*
X611095Y911730D01*
X609420Y911856D01*
X609373Y911852D01*
X609301Y911854D01*
X607466Y911649D01*
X607419Y911635D01*
X607344Y911623D01*
X605583Y911063D01*
X605541Y911040D01*
X605469Y911014D01*
X603852Y910121D01*
X603814Y910091D01*
X603749Y910051D01*
X602337Y908860D01*
X602306Y908823D01*
X602250Y908771D01*
X601097Y907327D01*
X601075Y907285D01*
X601030Y907223D01*
X600181Y905582D01*
X600167Y905536D01*
X600135Y905467D01*
X599622Y903692D01*
X599617Y903644D01*
X599600Y903569D01*
X599443Y901729D01*
X599447Y901685D01*
X599443Y901620D01*
X599603Y899789D01*
X599616Y899743D01*
X599624Y899682D01*
X599624Y899680D01*
X599626Y899667D01*
X600140Y897903D01*
X600161Y897859D01*
X600186Y897787D01*
X601035Y896157D01*
X601064Y896119D01*
X601103Y896053D01*
X602253Y894620D01*
X602289Y894588D01*
X602340Y894531D01*
X603748Y893350D01*
X603789Y893326D01*
X603850Y893280D01*
X605462Y892396D01*
X605507Y892381D01*
X605576Y892347D01*
X607329Y891795D01*
X607376Y891789D01*
X607450Y891769D01*
X609277Y891570D01*
X609323Y891573D01*
X609392Y891567D01*
X611068Y891690D01*
G37*
G36*
X573044Y815414D02*
X573044Y815414D01*
X573087Y815425D01*
X573153Y815431D01*
X574783Y815843D01*
X574823Y815861D01*
X574887Y815879D01*
X576420Y816567D01*
X576457Y816592D01*
X576517Y816621D01*
X577907Y817565D01*
X577939Y817596D01*
X577993Y817634D01*
X579199Y818805D01*
X579225Y818842D01*
X579271Y818889D01*
X580255Y820251D01*
X580274Y820292D01*
X580311Y820346D01*
X581044Y821859D01*
X581056Y821902D01*
X581083Y821962D01*
X581541Y823579D01*
X581546Y823624D01*
X581562Y823688D01*
X581733Y825360D01*
X581729Y825408D01*
X581733Y825487D01*
X581567Y827159D01*
X581555Y827202D01*
X581546Y827268D01*
X581092Y828885D01*
X581073Y828926D01*
X581053Y828989D01*
X580325Y830503D01*
X580299Y830539D01*
X580269Y830598D01*
X579288Y831963D01*
X579256Y831994D01*
X579216Y832047D01*
X578014Y833221D01*
X577977Y833246D01*
X577929Y833291D01*
X576541Y834238D01*
X576500Y834256D01*
X576444Y834292D01*
X574913Y834984D01*
X574870Y834995D01*
X574809Y835021D01*
X573180Y835436D01*
X573136Y835439D01*
X573071Y835454D01*
X571396Y835580D01*
X571349Y835576D01*
X571277Y835578D01*
X569442Y835373D01*
X569395Y835359D01*
X569320Y835347D01*
X567559Y834787D01*
X567517Y834764D01*
X567445Y834738D01*
X565828Y833845D01*
X565790Y833815D01*
X565725Y833775D01*
X564313Y832584D01*
X564282Y832547D01*
X564226Y832495D01*
X563073Y831051D01*
X563051Y831009D01*
X563006Y830947D01*
X562157Y829306D01*
X562143Y829260D01*
X562111Y829191D01*
X561598Y827416D01*
X561593Y827368D01*
X561576Y827293D01*
X561419Y825453D01*
X561423Y825409D01*
X561419Y825344D01*
X561579Y823513D01*
X561592Y823467D01*
X561600Y823406D01*
X561600Y823404D01*
X561602Y823391D01*
X562116Y821627D01*
X562137Y821583D01*
X562162Y821511D01*
X563011Y819881D01*
X563040Y819843D01*
X563079Y819777D01*
X564229Y818344D01*
X564265Y818312D01*
X564316Y818255D01*
X565724Y817074D01*
X565765Y817050D01*
X565826Y817004D01*
X567438Y816120D01*
X567483Y816105D01*
X567552Y816071D01*
X569305Y815519D01*
X569352Y815513D01*
X569426Y815493D01*
X571253Y815294D01*
X571299Y815297D01*
X571368Y815291D01*
X573044Y815414D01*
G37*
G36*
X611144Y815414D02*
X611144Y815414D01*
X611187Y815425D01*
X611253Y815431D01*
X612883Y815843D01*
X612923Y815861D01*
X612987Y815879D01*
X614520Y816567D01*
X614557Y816592D01*
X614617Y816621D01*
X616007Y817565D01*
X616039Y817596D01*
X616093Y817634D01*
X617299Y818805D01*
X617325Y818842D01*
X617371Y818889D01*
X618355Y820251D01*
X618374Y820292D01*
X618411Y820346D01*
X619144Y821859D01*
X619156Y821902D01*
X619183Y821962D01*
X619641Y823579D01*
X619646Y823624D01*
X619662Y823688D01*
X619833Y825360D01*
X619829Y825408D01*
X619833Y825487D01*
X619667Y827159D01*
X619655Y827202D01*
X619646Y827268D01*
X619192Y828885D01*
X619173Y828926D01*
X619153Y828989D01*
X618425Y830503D01*
X618399Y830539D01*
X618369Y830598D01*
X617388Y831963D01*
X617356Y831994D01*
X617316Y832047D01*
X616114Y833221D01*
X616077Y833246D01*
X616029Y833291D01*
X614641Y834238D01*
X614600Y834256D01*
X614544Y834292D01*
X613013Y834984D01*
X612970Y834995D01*
X612909Y835021D01*
X611280Y835436D01*
X611236Y835439D01*
X611171Y835454D01*
X609496Y835580D01*
X609449Y835576D01*
X609377Y835578D01*
X607542Y835373D01*
X607495Y835359D01*
X607420Y835347D01*
X605659Y834787D01*
X605617Y834764D01*
X605545Y834738D01*
X603928Y833845D01*
X603890Y833815D01*
X603825Y833775D01*
X602413Y832584D01*
X602382Y832547D01*
X602326Y832495D01*
X601173Y831051D01*
X601151Y831009D01*
X601106Y830947D01*
X600257Y829306D01*
X600243Y829260D01*
X600211Y829191D01*
X599698Y827416D01*
X599693Y827368D01*
X599676Y827293D01*
X599519Y825453D01*
X599523Y825409D01*
X599519Y825344D01*
X599679Y823513D01*
X599692Y823467D01*
X599700Y823406D01*
X599700Y823404D01*
X599702Y823391D01*
X600216Y821627D01*
X600237Y821583D01*
X600262Y821511D01*
X601111Y819881D01*
X601140Y819843D01*
X601179Y819777D01*
X602329Y818344D01*
X602365Y818312D01*
X602416Y818255D01*
X603824Y817074D01*
X603865Y817050D01*
X603926Y817004D01*
X605538Y816120D01*
X605583Y816105D01*
X605652Y816071D01*
X607405Y815519D01*
X607452Y815513D01*
X607526Y815493D01*
X609353Y815294D01*
X609399Y815297D01*
X609468Y815291D01*
X611144Y815414D01*
G37*
G36*
X611144Y688414D02*
X611144Y688414D01*
X611187Y688425D01*
X611253Y688431D01*
X612883Y688843D01*
X612923Y688861D01*
X612987Y688879D01*
X614520Y689567D01*
X614557Y689592D01*
X614617Y689621D01*
X616007Y690565D01*
X616039Y690596D01*
X616093Y690634D01*
X617299Y691805D01*
X617325Y691842D01*
X617371Y691889D01*
X618355Y693251D01*
X618374Y693292D01*
X618411Y693346D01*
X619144Y694859D01*
X619156Y694902D01*
X619183Y694962D01*
X619641Y696579D01*
X619646Y696624D01*
X619662Y696688D01*
X619833Y698360D01*
X619829Y698408D01*
X619833Y698487D01*
X619667Y700159D01*
X619655Y700202D01*
X619646Y700268D01*
X619192Y701885D01*
X619173Y701926D01*
X619153Y701989D01*
X618425Y703503D01*
X618399Y703539D01*
X618369Y703598D01*
X617388Y704963D01*
X617356Y704994D01*
X617316Y705047D01*
X616114Y706221D01*
X616077Y706246D01*
X616029Y706291D01*
X614641Y707238D01*
X614600Y707256D01*
X614544Y707292D01*
X613013Y707984D01*
X612970Y707995D01*
X612909Y708021D01*
X611280Y708436D01*
X611236Y708439D01*
X611171Y708454D01*
X609496Y708580D01*
X609449Y708576D01*
X609377Y708578D01*
X607542Y708373D01*
X607495Y708359D01*
X607420Y708347D01*
X605659Y707787D01*
X605617Y707764D01*
X605545Y707738D01*
X603928Y706845D01*
X603890Y706815D01*
X603825Y706775D01*
X602413Y705584D01*
X602382Y705547D01*
X602326Y705495D01*
X601173Y704051D01*
X601151Y704009D01*
X601106Y703947D01*
X600257Y702306D01*
X600243Y702260D01*
X600211Y702191D01*
X599698Y700416D01*
X599693Y700368D01*
X599676Y700293D01*
X599519Y698453D01*
X599523Y698409D01*
X599519Y698344D01*
X599679Y696513D01*
X599692Y696467D01*
X599700Y696406D01*
X599700Y696404D01*
X599702Y696391D01*
X600216Y694627D01*
X600237Y694583D01*
X600262Y694511D01*
X601111Y692881D01*
X601140Y692843D01*
X601179Y692777D01*
X602329Y691344D01*
X602365Y691312D01*
X602416Y691255D01*
X603824Y690074D01*
X603865Y690050D01*
X603926Y690004D01*
X605538Y689120D01*
X605583Y689105D01*
X605652Y689071D01*
X607405Y688519D01*
X607452Y688513D01*
X607526Y688493D01*
X609353Y688294D01*
X609399Y688297D01*
X609468Y688291D01*
X611144Y688414D01*
G37*
D10*
X50800Y635000D03*
X762000Y952500D03*
X762000Y635000D03*
X50800Y952500D03*
D11*
X152400Y774900D03*
D12*
X152400Y799900D03*
D11*
X152400Y698700D03*
D12*
X152400Y723700D03*
D11*
X342700Y863600D03*
D12*
X317700Y863600D03*
D11*
X152400Y647500D03*
D12*
X152400Y622500D03*
D13*
X209296Y800100D02*
X222504Y800100D01*
X222504Y774700D02*
X209296Y774700D01*
X209296Y647700D02*
X222504Y647700D01*
X222504Y622300D02*
X209296Y622300D01*
X209296Y749300D02*
X222504Y749300D01*
X222504Y723900D02*
X209296Y723900D01*
X209296Y673100D02*
X222504Y673100D01*
X222504Y698500D02*
X209296Y698500D01*
X285496Y622300D02*
X298704Y622300D01*
X298704Y647700D02*
X285496Y647700D01*
X285496Y673100D02*
X298704Y673100D01*
X298704Y698500D02*
X285496Y698500D01*
X285496Y723900D02*
X298704Y723900D01*
X298704Y749300D02*
X285496Y749300D01*
X285496Y774700D02*
X298704Y774700D01*
X298704Y800100D02*
X285496Y800100D01*
D14*
X88900Y711200D03*
X88900Y736600D03*
X88900Y762000D03*
X88900Y787400D03*
X381000Y698500D03*
X381000Y723900D03*
X381000Y749300D03*
X381000Y774700D03*
X381000Y800100D03*
X381000Y825500D03*
X381000Y850900D03*
X381000Y876300D03*
X711200Y876300D03*
X711200Y850900D03*
X711200Y825500D03*
X711200Y800100D03*
X711200Y774700D03*
X711200Y749300D03*
X711200Y723900D03*
X711200Y698500D03*
D15*
X669544Y698500D02*
X651256Y698500D01*
X651256Y723900D02*
X669544Y723900D01*
X669544Y749300D02*
X651256Y749300D01*
X651256Y774700D02*
X669544Y774700D01*
X669544Y800100D02*
X651256Y800100D01*
X651256Y825500D02*
X669544Y825500D01*
X669544Y850900D02*
X651256Y850900D01*
X651256Y876300D02*
X669544Y876300D01*
X440944Y698500D02*
X422656Y698500D01*
X422656Y723900D02*
X440944Y723900D01*
X440944Y749300D02*
X422656Y749300D01*
X422656Y774700D02*
X440944Y774700D01*
X440944Y800100D02*
X422656Y800100D01*
X422656Y825500D02*
X440944Y825500D01*
X440944Y850900D02*
X422656Y850900D01*
X422656Y876300D02*
X440944Y876300D01*
D11*
X317700Y939800D03*
D12*
X342700Y939800D03*
D16*
X275082Y889000D02*
X258318Y889000D01*
X258318Y914400D02*
X275082Y914400D01*
X275082Y939800D02*
X258318Y939800D01*
D17*
X116840Y914400D03*
D18*
X762000Y876300D03*
X787400Y876300D03*
X762000Y787400D03*
X787400Y787400D03*
X762000Y711200D03*
X787400Y711200D03*
M02*
