G04 EAGLE Gerber RS-274X export*
G75*
%MOMM*%
%FSLAX34Y34*%
%LPD*%
%INSolder stop mask CMP*%
%IPPOS*%
%AMOC8*
5,1,8,0,0,1.08239X$1,22.5*%
G01*
%ADD10C,3.683000*%
%ADD11C,1.854200*%
%ADD12R,1.854200X1.854200*%
%ADD13C,1.524000*%
%ADD14C,2.082800*%
%ADD15C,2.032000*%
%ADD16C,1.879600*%
%ADD17C,3.505200*%
%ADD18P,1.649562X8X22.500000*%

G36*
X572461Y896745D02*
X572461Y896745D01*
X572510Y896759D01*
X572600Y896775D01*
X573556Y897091D01*
X573601Y897115D01*
X573685Y897151D01*
X574546Y897672D01*
X574584Y897705D01*
X574659Y897758D01*
X575383Y898458D01*
X575412Y898499D01*
X575473Y898568D01*
X576023Y899411D01*
X576043Y899457D01*
X576087Y899538D01*
X576435Y900482D01*
X576444Y900532D01*
X576469Y900620D01*
X576599Y901618D01*
X576597Y901661D01*
X576598Y901787D01*
X576459Y902798D01*
X576443Y902846D01*
X576424Y902936D01*
X576062Y903891D01*
X576036Y903934D01*
X575998Y904018D01*
X575433Y904868D01*
X575398Y904905D01*
X575341Y904977D01*
X574602Y905681D01*
X574559Y905709D01*
X574488Y905767D01*
X573610Y906288D01*
X573563Y906306D01*
X573481Y906347D01*
X572509Y906660D01*
X572459Y906667D01*
X572370Y906688D01*
X571352Y906777D01*
X571302Y906772D01*
X571211Y906773D01*
X570247Y906642D01*
X570199Y906626D01*
X570110Y906607D01*
X569199Y906265D01*
X569156Y906239D01*
X569073Y906200D01*
X568261Y905663D01*
X568225Y905628D01*
X568152Y905572D01*
X567480Y904868D01*
X567453Y904826D01*
X567394Y904755D01*
X566896Y903920D01*
X566878Y903872D01*
X566838Y903790D01*
X566538Y902865D01*
X566531Y902814D01*
X566509Y902725D01*
X566423Y901756D01*
X566427Y901709D01*
X566424Y901634D01*
X566526Y900658D01*
X566540Y900610D01*
X566556Y900520D01*
X566872Y899591D01*
X566897Y899547D01*
X566933Y899462D01*
X567447Y898627D01*
X567481Y898590D01*
X567535Y898515D01*
X568223Y897816D01*
X568264Y897786D01*
X568333Y897726D01*
X569160Y897197D01*
X569206Y897178D01*
X569287Y897134D01*
X570210Y896802D01*
X570260Y896794D01*
X570349Y896769D01*
X571323Y896651D01*
X571373Y896654D01*
X571459Y896650D01*
X572461Y896745D01*
G37*
G36*
X610561Y896745D02*
X610561Y896745D01*
X610610Y896759D01*
X610700Y896775D01*
X611656Y897091D01*
X611701Y897115D01*
X611785Y897151D01*
X612646Y897672D01*
X612684Y897705D01*
X612759Y897758D01*
X613483Y898458D01*
X613512Y898499D01*
X613573Y898568D01*
X614123Y899411D01*
X614143Y899457D01*
X614187Y899538D01*
X614535Y900482D01*
X614544Y900532D01*
X614569Y900620D01*
X614699Y901618D01*
X614697Y901661D01*
X614698Y901787D01*
X614559Y902798D01*
X614543Y902846D01*
X614524Y902936D01*
X614162Y903891D01*
X614136Y903934D01*
X614098Y904018D01*
X613533Y904868D01*
X613498Y904905D01*
X613441Y904977D01*
X612702Y905681D01*
X612659Y905709D01*
X612588Y905767D01*
X611710Y906288D01*
X611663Y906306D01*
X611581Y906347D01*
X610609Y906660D01*
X610559Y906667D01*
X610470Y906688D01*
X609452Y906777D01*
X609402Y906772D01*
X609311Y906773D01*
X608347Y906642D01*
X608299Y906626D01*
X608210Y906607D01*
X607299Y906265D01*
X607256Y906239D01*
X607173Y906200D01*
X606361Y905663D01*
X606325Y905628D01*
X606252Y905572D01*
X605580Y904868D01*
X605553Y904826D01*
X605494Y904755D01*
X604996Y903920D01*
X604978Y903872D01*
X604938Y903790D01*
X604638Y902865D01*
X604631Y902814D01*
X604609Y902725D01*
X604523Y901756D01*
X604527Y901709D01*
X604524Y901634D01*
X604626Y900658D01*
X604640Y900610D01*
X604656Y900520D01*
X604972Y899591D01*
X604997Y899547D01*
X605033Y899462D01*
X605547Y898627D01*
X605581Y898590D01*
X605635Y898515D01*
X606323Y897816D01*
X606364Y897786D01*
X606433Y897726D01*
X607260Y897197D01*
X607306Y897178D01*
X607387Y897134D01*
X608310Y896802D01*
X608360Y896794D01*
X608449Y896769D01*
X609423Y896651D01*
X609473Y896654D01*
X609559Y896650D01*
X610561Y896745D01*
G37*
G36*
X572537Y820469D02*
X572537Y820469D01*
X572586Y820483D01*
X572676Y820499D01*
X573632Y820815D01*
X573677Y820839D01*
X573761Y820875D01*
X574622Y821396D01*
X574660Y821429D01*
X574735Y821482D01*
X575459Y822182D01*
X575488Y822223D01*
X575549Y822292D01*
X576099Y823135D01*
X576119Y823181D01*
X576163Y823262D01*
X576511Y824206D01*
X576520Y824256D01*
X576545Y824344D01*
X576675Y825342D01*
X576673Y825385D01*
X576674Y825511D01*
X576535Y826522D01*
X576519Y826570D01*
X576500Y826660D01*
X576138Y827615D01*
X576112Y827658D01*
X576074Y827742D01*
X575509Y828592D01*
X575474Y828629D01*
X575417Y828701D01*
X574678Y829405D01*
X574635Y829433D01*
X574564Y829491D01*
X573686Y830012D01*
X573639Y830030D01*
X573557Y830071D01*
X572585Y830384D01*
X572535Y830391D01*
X572446Y830412D01*
X571428Y830501D01*
X571378Y830496D01*
X571287Y830497D01*
X570323Y830366D01*
X570275Y830350D01*
X570186Y830331D01*
X569275Y829989D01*
X569232Y829963D01*
X569149Y829924D01*
X568337Y829387D01*
X568301Y829352D01*
X568228Y829296D01*
X567556Y828592D01*
X567529Y828550D01*
X567470Y828479D01*
X566972Y827644D01*
X566954Y827596D01*
X566914Y827514D01*
X566614Y826589D01*
X566607Y826538D01*
X566585Y826449D01*
X566499Y825480D01*
X566503Y825433D01*
X566500Y825358D01*
X566602Y824382D01*
X566616Y824334D01*
X566632Y824244D01*
X566948Y823315D01*
X566973Y823271D01*
X567009Y823186D01*
X567523Y822351D01*
X567557Y822314D01*
X567611Y822239D01*
X568299Y821540D01*
X568340Y821510D01*
X568409Y821450D01*
X569236Y820921D01*
X569282Y820902D01*
X569363Y820858D01*
X570286Y820526D01*
X570336Y820518D01*
X570425Y820493D01*
X571399Y820375D01*
X571449Y820378D01*
X571535Y820374D01*
X572537Y820469D01*
G37*
G36*
X610637Y820469D02*
X610637Y820469D01*
X610686Y820483D01*
X610776Y820499D01*
X611732Y820815D01*
X611777Y820839D01*
X611861Y820875D01*
X612722Y821396D01*
X612760Y821429D01*
X612835Y821482D01*
X613559Y822182D01*
X613588Y822223D01*
X613649Y822292D01*
X614199Y823135D01*
X614219Y823181D01*
X614263Y823262D01*
X614611Y824206D01*
X614620Y824256D01*
X614645Y824344D01*
X614775Y825342D01*
X614773Y825385D01*
X614774Y825511D01*
X614635Y826522D01*
X614619Y826570D01*
X614600Y826660D01*
X614238Y827615D01*
X614212Y827658D01*
X614174Y827742D01*
X613609Y828592D01*
X613574Y828629D01*
X613517Y828701D01*
X612778Y829405D01*
X612735Y829433D01*
X612664Y829491D01*
X611786Y830012D01*
X611739Y830030D01*
X611657Y830071D01*
X610685Y830384D01*
X610635Y830391D01*
X610546Y830412D01*
X609528Y830501D01*
X609478Y830496D01*
X609387Y830497D01*
X608423Y830366D01*
X608375Y830350D01*
X608286Y830331D01*
X607375Y829989D01*
X607332Y829963D01*
X607249Y829924D01*
X606437Y829387D01*
X606401Y829352D01*
X606328Y829296D01*
X605656Y828592D01*
X605629Y828550D01*
X605570Y828479D01*
X605072Y827644D01*
X605054Y827596D01*
X605014Y827514D01*
X604714Y826589D01*
X604707Y826538D01*
X604685Y826449D01*
X604599Y825480D01*
X604603Y825433D01*
X604600Y825358D01*
X604702Y824382D01*
X604716Y824334D01*
X604732Y824244D01*
X605048Y823315D01*
X605073Y823271D01*
X605109Y823186D01*
X605623Y822351D01*
X605657Y822314D01*
X605711Y822239D01*
X606399Y821540D01*
X606440Y821510D01*
X606509Y821450D01*
X607336Y820921D01*
X607382Y820902D01*
X607463Y820858D01*
X608386Y820526D01*
X608436Y820518D01*
X608525Y820493D01*
X609499Y820375D01*
X609549Y820378D01*
X609635Y820374D01*
X610637Y820469D01*
G37*
G36*
X610561Y769745D02*
X610561Y769745D01*
X610610Y769759D01*
X610700Y769775D01*
X611656Y770091D01*
X611701Y770115D01*
X611785Y770151D01*
X612646Y770672D01*
X612684Y770705D01*
X612759Y770758D01*
X613483Y771458D01*
X613512Y771499D01*
X613573Y771568D01*
X614123Y772411D01*
X614143Y772457D01*
X614187Y772538D01*
X614535Y773482D01*
X614544Y773532D01*
X614569Y773620D01*
X614699Y774618D01*
X614697Y774661D01*
X614698Y774787D01*
X614559Y775798D01*
X614543Y775846D01*
X614524Y775936D01*
X614162Y776891D01*
X614136Y776934D01*
X614098Y777018D01*
X613533Y777868D01*
X613498Y777905D01*
X613441Y777977D01*
X612702Y778681D01*
X612659Y778709D01*
X612588Y778767D01*
X611710Y779288D01*
X611663Y779306D01*
X611581Y779347D01*
X610609Y779660D01*
X610559Y779667D01*
X610470Y779688D01*
X609452Y779777D01*
X609402Y779772D01*
X609311Y779773D01*
X608347Y779642D01*
X608299Y779626D01*
X608210Y779607D01*
X607299Y779265D01*
X607256Y779239D01*
X607173Y779200D01*
X606361Y778663D01*
X606325Y778628D01*
X606252Y778572D01*
X605580Y777868D01*
X605553Y777826D01*
X605494Y777755D01*
X604996Y776920D01*
X604978Y776872D01*
X604938Y776790D01*
X604638Y775865D01*
X604631Y775814D01*
X604609Y775725D01*
X604523Y774756D01*
X604527Y774709D01*
X604524Y774634D01*
X604626Y773658D01*
X604640Y773610D01*
X604656Y773520D01*
X604972Y772591D01*
X604997Y772547D01*
X605033Y772462D01*
X605547Y771627D01*
X605581Y771590D01*
X605635Y771515D01*
X606323Y770816D01*
X606364Y770786D01*
X606433Y770726D01*
X607260Y770197D01*
X607306Y770178D01*
X607387Y770134D01*
X608310Y769802D01*
X608360Y769794D01*
X608449Y769769D01*
X609423Y769651D01*
X609473Y769654D01*
X609559Y769650D01*
X610561Y769745D01*
G37*
G36*
X610637Y693469D02*
X610637Y693469D01*
X610686Y693483D01*
X610776Y693499D01*
X611732Y693815D01*
X611777Y693839D01*
X611861Y693875D01*
X612722Y694396D01*
X612760Y694429D01*
X612835Y694482D01*
X613559Y695182D01*
X613588Y695223D01*
X613649Y695292D01*
X614199Y696135D01*
X614219Y696181D01*
X614263Y696262D01*
X614611Y697206D01*
X614620Y697256D01*
X614645Y697344D01*
X614775Y698342D01*
X614773Y698385D01*
X614774Y698511D01*
X614635Y699522D01*
X614619Y699570D01*
X614600Y699660D01*
X614238Y700615D01*
X614212Y700658D01*
X614174Y700742D01*
X613609Y701592D01*
X613574Y701629D01*
X613517Y701701D01*
X612778Y702405D01*
X612735Y702433D01*
X612664Y702491D01*
X611786Y703012D01*
X611739Y703030D01*
X611657Y703071D01*
X610685Y703384D01*
X610635Y703391D01*
X610546Y703412D01*
X609528Y703501D01*
X609478Y703496D01*
X609387Y703497D01*
X608423Y703366D01*
X608375Y703350D01*
X608286Y703331D01*
X607375Y702989D01*
X607332Y702963D01*
X607249Y702924D01*
X606437Y702387D01*
X606401Y702352D01*
X606328Y702296D01*
X605656Y701592D01*
X605629Y701550D01*
X605570Y701479D01*
X605072Y700644D01*
X605054Y700596D01*
X605014Y700514D01*
X604714Y699589D01*
X604707Y699538D01*
X604685Y699449D01*
X604599Y698480D01*
X604603Y698433D01*
X604600Y698358D01*
X604702Y697382D01*
X604716Y697334D01*
X604732Y697244D01*
X605048Y696315D01*
X605073Y696271D01*
X605109Y696186D01*
X605623Y695351D01*
X605657Y695314D01*
X605711Y695239D01*
X606399Y694540D01*
X606440Y694510D01*
X606509Y694450D01*
X607336Y693921D01*
X607382Y693902D01*
X607463Y693858D01*
X608386Y693526D01*
X608436Y693518D01*
X608525Y693493D01*
X609499Y693375D01*
X609549Y693378D01*
X609635Y693374D01*
X610637Y693469D01*
G37*
D10*
X50800Y635000D03*
X762000Y952500D03*
X762000Y635000D03*
X50800Y952500D03*
D11*
X152400Y774900D03*
D12*
X152400Y799900D03*
D11*
X152400Y698700D03*
D12*
X152400Y723700D03*
D11*
X342700Y863600D03*
D12*
X317700Y863600D03*
D11*
X152400Y647500D03*
D12*
X152400Y622500D03*
D13*
X209296Y800100D02*
X222504Y800100D01*
X222504Y774700D02*
X209296Y774700D01*
X209296Y647700D02*
X222504Y647700D01*
X222504Y622300D02*
X209296Y622300D01*
X209296Y749300D02*
X222504Y749300D01*
X222504Y723900D02*
X209296Y723900D01*
X209296Y673100D02*
X222504Y673100D01*
X222504Y698500D02*
X209296Y698500D01*
X285496Y622300D02*
X298704Y622300D01*
X298704Y647700D02*
X285496Y647700D01*
X285496Y673100D02*
X298704Y673100D01*
X298704Y698500D02*
X285496Y698500D01*
X285496Y723900D02*
X298704Y723900D01*
X298704Y749300D02*
X285496Y749300D01*
X285496Y774700D02*
X298704Y774700D01*
X298704Y800100D02*
X285496Y800100D01*
D14*
X88900Y711200D03*
X88900Y736600D03*
X88900Y762000D03*
X88900Y787400D03*
X381000Y698500D03*
X381000Y723900D03*
X381000Y749300D03*
X381000Y774700D03*
X381000Y800100D03*
X381000Y825500D03*
X381000Y850900D03*
X381000Y876300D03*
X711200Y876300D03*
X711200Y850900D03*
X711200Y825500D03*
X711200Y800100D03*
X711200Y774700D03*
X711200Y749300D03*
X711200Y723900D03*
X711200Y698500D03*
D15*
X669544Y698500D02*
X651256Y698500D01*
X651256Y723900D02*
X669544Y723900D01*
X669544Y749300D02*
X651256Y749300D01*
X651256Y774700D02*
X669544Y774700D01*
X669544Y800100D02*
X651256Y800100D01*
X651256Y825500D02*
X669544Y825500D01*
X669544Y850900D02*
X651256Y850900D01*
X651256Y876300D02*
X669544Y876300D01*
X440944Y698500D02*
X422656Y698500D01*
X422656Y723900D02*
X440944Y723900D01*
X440944Y749300D02*
X422656Y749300D01*
X422656Y774700D02*
X440944Y774700D01*
X440944Y800100D02*
X422656Y800100D01*
X422656Y825500D02*
X440944Y825500D01*
X440944Y850900D02*
X422656Y850900D01*
X422656Y876300D02*
X440944Y876300D01*
D11*
X317700Y939800D03*
D12*
X342700Y939800D03*
D16*
X275082Y889000D02*
X258318Y889000D01*
X258318Y914400D02*
X275082Y914400D01*
X275082Y939800D02*
X258318Y939800D01*
D17*
X116840Y914400D03*
D18*
X762000Y876300D03*
X787400Y876300D03*
X762000Y787400D03*
X787400Y787400D03*
X762000Y711200D03*
X787400Y711200D03*
M02*
