G04 EAGLE Gerber RS-274X export*
G75*
%MOMM*%
%FSLAX34Y34*%
%LPD*%
%INSolder side*%
%IPPOS*%
%AMOC8*
5,1,8,0,0,1.08239X$1,22.5*%
G01*
%ADD10C,1.651000*%
%ADD11R,1.651000X1.651000*%
%ADD12C,1.320800*%
%ADD13C,1.879600*%
%ADD14C,1.828800*%
%ADD15C,1.676400*%
%ADD16P,1.429621X8X22.500000*%
%ADD17C,2.032000*%
%ADD18C,0.457200*%


D10*
X152400Y774900D03*
D11*
X152400Y799900D03*
D10*
X152400Y698700D03*
D11*
X152400Y723700D03*
D10*
X342700Y863600D03*
D11*
X317700Y863600D03*
D10*
X152400Y647500D03*
D11*
X152400Y622500D03*
D12*
X209296Y800100D02*
X222504Y800100D01*
X222504Y774700D02*
X209296Y774700D01*
X209296Y647700D02*
X222504Y647700D01*
X222504Y622300D02*
X209296Y622300D01*
X209296Y749300D02*
X222504Y749300D01*
X222504Y723900D02*
X209296Y723900D01*
X209296Y673100D02*
X222504Y673100D01*
X222504Y698500D02*
X209296Y698500D01*
X285496Y622300D02*
X298704Y622300D01*
X298704Y647700D02*
X285496Y647700D01*
X285496Y673100D02*
X298704Y673100D01*
X298704Y698500D02*
X285496Y698500D01*
X285496Y723900D02*
X298704Y723900D01*
X298704Y749300D02*
X285496Y749300D01*
X285496Y774700D02*
X298704Y774700D01*
X298704Y800100D02*
X285496Y800100D01*
D13*
X88900Y711200D03*
X88900Y736600D03*
X88900Y762000D03*
X88900Y787400D03*
X381000Y698500D03*
X381000Y723900D03*
X381000Y749300D03*
X381000Y774700D03*
X381000Y800100D03*
X381000Y825500D03*
X381000Y850900D03*
X381000Y876300D03*
X711200Y876300D03*
X711200Y850900D03*
X711200Y825500D03*
X711200Y800100D03*
X711200Y774700D03*
X711200Y749300D03*
X711200Y723900D03*
X711200Y698500D03*
D14*
X669544Y698500D02*
X651256Y698500D01*
X651256Y723900D02*
X669544Y723900D01*
X669544Y749300D02*
X651256Y749300D01*
X651256Y774700D02*
X669544Y774700D01*
X669544Y800100D02*
X651256Y800100D01*
X651256Y825500D02*
X669544Y825500D01*
X669544Y850900D02*
X651256Y850900D01*
X651256Y876300D02*
X669544Y876300D01*
X440944Y698500D02*
X422656Y698500D01*
X422656Y723900D02*
X440944Y723900D01*
X440944Y749300D02*
X422656Y749300D01*
X422656Y774700D02*
X440944Y774700D01*
X440944Y800100D02*
X422656Y800100D01*
X422656Y825500D02*
X440944Y825500D01*
X440944Y850900D02*
X422656Y850900D01*
X422656Y876300D02*
X440944Y876300D01*
D10*
X317700Y939800D03*
D11*
X342700Y939800D03*
D15*
X275082Y889000D02*
X258318Y889000D01*
X258318Y914400D02*
X275082Y914400D01*
X275082Y939800D02*
X258318Y939800D01*
D16*
X762000Y876300D03*
X787400Y876300D03*
X762000Y787400D03*
X787400Y787400D03*
X762000Y711200D03*
X787400Y711200D03*
D17*
X609600Y774700D03*
X609600Y698500D03*
X609600Y901700D03*
X609600Y825500D03*
X571500Y901700D03*
X571500Y825500D03*
D18*
X215900Y647700D02*
X190500Y647700D01*
X165100Y673100D01*
X139700Y673100D01*
X127000Y685800D01*
X127000Y762000D01*
X101600Y787400D01*
X88900Y787400D01*
X88900Y762000D02*
X101600Y762000D01*
X114300Y749300D01*
X114300Y698500D01*
X101600Y685800D01*
X101600Y609600D01*
X114300Y596900D01*
X190500Y596900D01*
X215900Y622300D01*
X266700Y889000D02*
X304800Y889000D01*
X342700Y926900D01*
X342700Y939800D01*
X139700Y850900D02*
X88900Y850900D01*
X50800Y812800D02*
X50800Y749300D01*
X63500Y736600D01*
X88900Y736600D01*
X177800Y889000D02*
X266700Y889000D01*
X177800Y889000D02*
X139700Y850900D01*
X88900Y850900D02*
X50800Y812800D01*
X215900Y774700D02*
X228600Y787400D01*
X254000Y787400D01*
X266700Y800100D01*
X266700Y825500D01*
X279400Y838200D01*
X304800Y838200D01*
X317700Y851100D01*
X317700Y863600D01*
X749300Y800100D02*
X762000Y787400D01*
X749300Y800100D02*
X749300Y901700D01*
X736600Y914400D01*
X622300Y914400D02*
X609600Y901700D01*
X622300Y914400D02*
X736600Y914400D01*
X571500Y901700D02*
X546100Y876300D01*
X736600Y660400D02*
X762000Y685800D01*
X762000Y711200D01*
X546100Y736600D02*
X546100Y876300D01*
X546100Y736600D02*
X622300Y660400D01*
X736600Y660400D01*
M02*
