G04 EAGLE Gerber RS-274X export*
G75*
%MOMM*%
%FSLAX34Y34*%
%LPD*%
%INComponent side*%
%IPPOS*%
%AMOC8*
5,1,8,0,0,1.08239X$1,22.5*%
G01*
%ADD10C,0.130000*%
%ADD11C,0.152400*%
%ADD12C,1.651000*%
%ADD13R,1.651000X1.651000*%
%ADD14C,1.320800*%
%ADD15C,1.879600*%
%ADD16C,1.828800*%
%ADD17C,1.676400*%
%ADD18P,1.429621X8X22.500000*%
%ADD19C,2.032000*%
%ADD20C,0.457200*%


D10*
X0Y584200D02*
X0Y501200D01*
X812600Y501200D02*
X812600Y584200D01*
X811950Y520700D02*
X650Y520700D01*
X26000Y523892D01*
X26000Y517508D01*
X650Y520700D01*
X26000Y522000D01*
X26000Y519400D02*
X650Y520700D01*
X26000Y523300D01*
X26000Y518100D02*
X650Y520700D01*
X786600Y523892D02*
X811950Y520700D01*
X786600Y523892D02*
X786600Y517508D01*
X811950Y520700D01*
X786600Y522000D01*
X786600Y519400D02*
X811950Y520700D01*
X786600Y523300D01*
X786600Y518100D02*
X811950Y520700D01*
D11*
X384273Y531723D02*
X384271Y531856D01*
X384265Y531988D01*
X384255Y532120D01*
X384242Y532252D01*
X384224Y532384D01*
X384203Y532514D01*
X384178Y532645D01*
X384149Y532774D01*
X384116Y532902D01*
X384080Y533030D01*
X384040Y533156D01*
X383996Y533281D01*
X383948Y533405D01*
X383897Y533527D01*
X383842Y533648D01*
X383784Y533767D01*
X383722Y533885D01*
X383657Y534000D01*
X383588Y534114D01*
X383517Y534225D01*
X383441Y534334D01*
X383363Y534441D01*
X383282Y534546D01*
X383197Y534648D01*
X383110Y534748D01*
X383020Y534845D01*
X382927Y534940D01*
X382831Y535031D01*
X382733Y535120D01*
X382632Y535206D01*
X382528Y535289D01*
X382422Y535369D01*
X382314Y535445D01*
X382204Y535519D01*
X382091Y535589D01*
X381977Y535656D01*
X381860Y535719D01*
X381742Y535779D01*
X381622Y535836D01*
X381500Y535889D01*
X381377Y535938D01*
X381253Y535984D01*
X381127Y536026D01*
X381000Y536064D01*
X380872Y536099D01*
X380743Y536130D01*
X380614Y536157D01*
X380483Y536180D01*
X380352Y536200D01*
X380220Y536215D01*
X380088Y536227D01*
X379956Y536235D01*
X379823Y536239D01*
X379691Y536239D01*
X379558Y536235D01*
X379426Y536227D01*
X379294Y536215D01*
X379162Y536200D01*
X379031Y536180D01*
X378900Y536157D01*
X378771Y536130D01*
X378642Y536099D01*
X378514Y536064D01*
X378387Y536026D01*
X378261Y535984D01*
X378137Y535938D01*
X378014Y535889D01*
X377892Y535836D01*
X377772Y535779D01*
X377654Y535719D01*
X377537Y535656D01*
X377423Y535589D01*
X377310Y535519D01*
X377200Y535445D01*
X377092Y535369D01*
X376986Y535289D01*
X376882Y535206D01*
X376781Y535120D01*
X376683Y535031D01*
X376587Y534940D01*
X376494Y534845D01*
X376404Y534748D01*
X376317Y534648D01*
X376232Y534546D01*
X376151Y534441D01*
X376073Y534334D01*
X375997Y534225D01*
X375926Y534114D01*
X375857Y534000D01*
X375792Y533885D01*
X375730Y533767D01*
X375672Y533648D01*
X375617Y533527D01*
X375566Y533405D01*
X375518Y533281D01*
X375474Y533156D01*
X375434Y533030D01*
X375398Y532902D01*
X375365Y532774D01*
X375336Y532645D01*
X375311Y532514D01*
X375290Y532384D01*
X375272Y532252D01*
X375259Y532120D01*
X375249Y531988D01*
X375243Y531856D01*
X375241Y531723D01*
X375243Y531590D01*
X375249Y531458D01*
X375259Y531326D01*
X375272Y531194D01*
X375290Y531062D01*
X375311Y530932D01*
X375336Y530801D01*
X375365Y530672D01*
X375398Y530544D01*
X375434Y530416D01*
X375474Y530290D01*
X375518Y530165D01*
X375566Y530041D01*
X375617Y529919D01*
X375672Y529798D01*
X375730Y529679D01*
X375792Y529561D01*
X375857Y529446D01*
X375926Y529332D01*
X375997Y529221D01*
X376073Y529112D01*
X376151Y529005D01*
X376232Y528900D01*
X376317Y528798D01*
X376404Y528698D01*
X376494Y528601D01*
X376587Y528506D01*
X376683Y528415D01*
X376781Y528326D01*
X376882Y528240D01*
X376986Y528157D01*
X377092Y528077D01*
X377200Y528001D01*
X377310Y527927D01*
X377423Y527857D01*
X377537Y527790D01*
X377654Y527727D01*
X377772Y527667D01*
X377892Y527610D01*
X378014Y527557D01*
X378137Y527508D01*
X378261Y527462D01*
X378387Y527420D01*
X378514Y527382D01*
X378642Y527347D01*
X378771Y527316D01*
X378900Y527289D01*
X379031Y527266D01*
X379162Y527246D01*
X379294Y527231D01*
X379426Y527219D01*
X379558Y527211D01*
X379691Y527207D01*
X379823Y527207D01*
X379956Y527211D01*
X380088Y527219D01*
X380220Y527231D01*
X380352Y527246D01*
X380483Y527266D01*
X380614Y527289D01*
X380743Y527316D01*
X380872Y527347D01*
X381000Y527382D01*
X381127Y527420D01*
X381253Y527462D01*
X381377Y527508D01*
X381500Y527557D01*
X381622Y527610D01*
X381742Y527667D01*
X381860Y527727D01*
X381977Y527790D01*
X382091Y527857D01*
X382204Y527927D01*
X382314Y528001D01*
X382422Y528077D01*
X382528Y528157D01*
X382632Y528240D01*
X382733Y528326D01*
X382831Y528415D01*
X382927Y528506D01*
X383020Y528601D01*
X383110Y528698D01*
X383197Y528798D01*
X383282Y528900D01*
X383363Y529005D01*
X383441Y529112D01*
X383517Y529221D01*
X383588Y529332D01*
X383657Y529446D01*
X383722Y529561D01*
X383784Y529679D01*
X383842Y529798D01*
X383897Y529919D01*
X383948Y530041D01*
X383996Y530165D01*
X384040Y530290D01*
X384080Y530416D01*
X384116Y530544D01*
X384149Y530672D01*
X384178Y530801D01*
X384203Y530932D01*
X384224Y531062D01*
X384242Y531194D01*
X384255Y531326D01*
X384265Y531458D01*
X384271Y531590D01*
X384273Y531723D01*
X383369Y539851D02*
X383367Y539970D01*
X383361Y540090D01*
X383351Y540209D01*
X383337Y540327D01*
X383320Y540446D01*
X383298Y540563D01*
X383273Y540680D01*
X383243Y540795D01*
X383210Y540910D01*
X383173Y541024D01*
X383133Y541136D01*
X383088Y541247D01*
X383040Y541356D01*
X382989Y541464D01*
X382934Y541570D01*
X382875Y541674D01*
X382813Y541776D01*
X382748Y541876D01*
X382679Y541974D01*
X382607Y542070D01*
X382532Y542163D01*
X382455Y542253D01*
X382374Y542341D01*
X382290Y542426D01*
X382203Y542508D01*
X382114Y542588D01*
X382022Y542664D01*
X381928Y542738D01*
X381831Y542808D01*
X381733Y542875D01*
X381632Y542939D01*
X381528Y542999D01*
X381423Y543056D01*
X381316Y543109D01*
X381208Y543159D01*
X381098Y543205D01*
X380986Y543247D01*
X380873Y543286D01*
X380759Y543321D01*
X380644Y543352D01*
X380527Y543380D01*
X380410Y543403D01*
X380293Y543423D01*
X380174Y543439D01*
X380055Y543451D01*
X379936Y543459D01*
X379817Y543463D01*
X379697Y543463D01*
X379578Y543459D01*
X379459Y543451D01*
X379340Y543439D01*
X379221Y543423D01*
X379104Y543403D01*
X378987Y543380D01*
X378870Y543352D01*
X378755Y543321D01*
X378641Y543286D01*
X378528Y543247D01*
X378416Y543205D01*
X378306Y543159D01*
X378198Y543109D01*
X378091Y543056D01*
X377986Y542999D01*
X377882Y542939D01*
X377781Y542875D01*
X377683Y542808D01*
X377586Y542738D01*
X377492Y542664D01*
X377400Y542588D01*
X377311Y542508D01*
X377224Y542426D01*
X377140Y542341D01*
X377059Y542253D01*
X376982Y542163D01*
X376907Y542070D01*
X376835Y541974D01*
X376766Y541876D01*
X376701Y541776D01*
X376639Y541674D01*
X376580Y541570D01*
X376525Y541464D01*
X376474Y541356D01*
X376426Y541247D01*
X376381Y541136D01*
X376341Y541024D01*
X376304Y540910D01*
X376271Y540795D01*
X376241Y540680D01*
X376216Y540563D01*
X376194Y540446D01*
X376177Y540327D01*
X376163Y540209D01*
X376153Y540090D01*
X376147Y539970D01*
X376145Y539851D01*
X376147Y539732D01*
X376153Y539612D01*
X376163Y539493D01*
X376177Y539375D01*
X376194Y539256D01*
X376216Y539139D01*
X376241Y539022D01*
X376271Y538907D01*
X376304Y538792D01*
X376341Y538678D01*
X376381Y538566D01*
X376426Y538455D01*
X376474Y538346D01*
X376525Y538238D01*
X376580Y538132D01*
X376639Y538028D01*
X376701Y537926D01*
X376766Y537826D01*
X376835Y537728D01*
X376907Y537632D01*
X376982Y537539D01*
X377059Y537449D01*
X377140Y537361D01*
X377224Y537276D01*
X377311Y537194D01*
X377400Y537114D01*
X377492Y537038D01*
X377586Y536964D01*
X377683Y536894D01*
X377781Y536827D01*
X377882Y536763D01*
X377986Y536703D01*
X378091Y536646D01*
X378198Y536593D01*
X378306Y536543D01*
X378416Y536497D01*
X378528Y536455D01*
X378641Y536416D01*
X378755Y536381D01*
X378870Y536350D01*
X378987Y536322D01*
X379104Y536299D01*
X379221Y536279D01*
X379340Y536263D01*
X379459Y536251D01*
X379578Y536243D01*
X379697Y536239D01*
X379817Y536239D01*
X379936Y536243D01*
X380055Y536251D01*
X380174Y536263D01*
X380293Y536279D01*
X380410Y536299D01*
X380527Y536322D01*
X380644Y536350D01*
X380759Y536381D01*
X380873Y536416D01*
X380986Y536455D01*
X381098Y536497D01*
X381208Y536543D01*
X381316Y536593D01*
X381423Y536646D01*
X381528Y536703D01*
X381632Y536763D01*
X381733Y536827D01*
X381831Y536894D01*
X381928Y536964D01*
X382022Y537038D01*
X382114Y537114D01*
X382203Y537194D01*
X382290Y537276D01*
X382374Y537361D01*
X382455Y537449D01*
X382532Y537539D01*
X382607Y537632D01*
X382679Y537728D01*
X382748Y537826D01*
X382813Y537926D01*
X382875Y538028D01*
X382934Y538132D01*
X382989Y538238D01*
X383040Y538346D01*
X383088Y538455D01*
X383133Y538566D01*
X383173Y538678D01*
X383210Y538792D01*
X383243Y538907D01*
X383273Y539022D01*
X383298Y539139D01*
X383320Y539256D01*
X383337Y539375D01*
X383351Y539493D01*
X383361Y539612D01*
X383367Y539732D01*
X383369Y539851D01*
X390873Y539851D02*
X395388Y543463D01*
X395388Y527207D01*
X390873Y527207D02*
X399904Y527207D01*
X405878Y527207D02*
X405878Y528110D01*
X406781Y528110D01*
X406781Y527207D01*
X405878Y527207D01*
X421787Y539399D02*
X421785Y539524D01*
X421779Y539649D01*
X421770Y539774D01*
X421756Y539898D01*
X421739Y540022D01*
X421718Y540146D01*
X421693Y540268D01*
X421664Y540390D01*
X421632Y540511D01*
X421596Y540631D01*
X421556Y540750D01*
X421513Y540867D01*
X421466Y540983D01*
X421415Y541098D01*
X421361Y541210D01*
X421303Y541322D01*
X421243Y541431D01*
X421178Y541538D01*
X421111Y541644D01*
X421040Y541747D01*
X420966Y541848D01*
X420889Y541947D01*
X420809Y542043D01*
X420726Y542137D01*
X420641Y542228D01*
X420552Y542317D01*
X420461Y542402D01*
X420367Y542485D01*
X420271Y542565D01*
X420172Y542642D01*
X420071Y542716D01*
X419968Y542787D01*
X419862Y542854D01*
X419755Y542919D01*
X419646Y542979D01*
X419534Y543037D01*
X419422Y543091D01*
X419307Y543142D01*
X419191Y543189D01*
X419074Y543232D01*
X418955Y543272D01*
X418835Y543308D01*
X418714Y543340D01*
X418592Y543369D01*
X418470Y543394D01*
X418346Y543415D01*
X418222Y543432D01*
X418098Y543446D01*
X417973Y543455D01*
X417848Y543461D01*
X417723Y543463D01*
X417580Y543461D01*
X417438Y543455D01*
X417295Y543445D01*
X417153Y543432D01*
X417012Y543414D01*
X416870Y543393D01*
X416730Y543368D01*
X416590Y543339D01*
X416451Y543306D01*
X416313Y543269D01*
X416176Y543229D01*
X416041Y543185D01*
X415906Y543137D01*
X415773Y543085D01*
X415641Y543030D01*
X415511Y542971D01*
X415383Y542909D01*
X415256Y542843D01*
X415131Y542774D01*
X415008Y542702D01*
X414888Y542626D01*
X414769Y542547D01*
X414652Y542464D01*
X414538Y542379D01*
X414426Y542290D01*
X414317Y542199D01*
X414210Y542104D01*
X414105Y542007D01*
X414004Y541906D01*
X413905Y541803D01*
X413809Y541698D01*
X413716Y541589D01*
X413626Y541478D01*
X413539Y541365D01*
X413455Y541250D01*
X413375Y541132D01*
X413297Y541012D01*
X413223Y540890D01*
X413153Y540766D01*
X413085Y540640D01*
X413022Y540512D01*
X412961Y540383D01*
X412904Y540252D01*
X412851Y540120D01*
X412802Y539986D01*
X412756Y539851D01*
X420432Y536238D02*
X420526Y536330D01*
X420616Y536424D01*
X420704Y536521D01*
X420789Y536621D01*
X420871Y536723D01*
X420950Y536828D01*
X421025Y536935D01*
X421097Y537044D01*
X421166Y537155D01*
X421232Y537269D01*
X421294Y537384D01*
X421353Y537501D01*
X421408Y537620D01*
X421459Y537740D01*
X421507Y537862D01*
X421552Y537985D01*
X421592Y538109D01*
X421629Y538235D01*
X421662Y538362D01*
X421691Y538489D01*
X421717Y538618D01*
X421738Y538747D01*
X421756Y538877D01*
X421769Y539007D01*
X421779Y539137D01*
X421785Y539268D01*
X421787Y539399D01*
X420433Y536238D02*
X412756Y527207D01*
X421787Y527207D01*
X428387Y536238D02*
X433806Y536238D01*
X433924Y536236D01*
X434042Y536230D01*
X434160Y536221D01*
X434277Y536207D01*
X434394Y536190D01*
X434511Y536169D01*
X434626Y536144D01*
X434741Y536115D01*
X434855Y536082D01*
X434967Y536046D01*
X435078Y536006D01*
X435188Y535963D01*
X435297Y535916D01*
X435404Y535866D01*
X435509Y535811D01*
X435612Y535754D01*
X435713Y535693D01*
X435813Y535629D01*
X435910Y535562D01*
X436005Y535492D01*
X436097Y535418D01*
X436188Y535342D01*
X436275Y535262D01*
X436360Y535180D01*
X436442Y535095D01*
X436522Y535008D01*
X436598Y534917D01*
X436672Y534825D01*
X436742Y534730D01*
X436809Y534633D01*
X436873Y534533D01*
X436934Y534432D01*
X436991Y534329D01*
X437046Y534224D01*
X437096Y534117D01*
X437143Y534008D01*
X437186Y533898D01*
X437226Y533787D01*
X437262Y533675D01*
X437295Y533561D01*
X437324Y533446D01*
X437349Y533331D01*
X437370Y533214D01*
X437387Y533097D01*
X437401Y532980D01*
X437410Y532862D01*
X437416Y532744D01*
X437418Y532626D01*
X437419Y532626D02*
X437419Y531723D01*
X437417Y531590D01*
X437411Y531458D01*
X437401Y531326D01*
X437388Y531194D01*
X437370Y531062D01*
X437349Y530932D01*
X437324Y530801D01*
X437295Y530672D01*
X437262Y530544D01*
X437226Y530416D01*
X437186Y530290D01*
X437142Y530165D01*
X437094Y530041D01*
X437043Y529919D01*
X436988Y529798D01*
X436930Y529679D01*
X436868Y529561D01*
X436803Y529446D01*
X436734Y529332D01*
X436663Y529221D01*
X436587Y529112D01*
X436509Y529005D01*
X436428Y528900D01*
X436343Y528798D01*
X436256Y528698D01*
X436166Y528601D01*
X436073Y528506D01*
X435977Y528415D01*
X435879Y528326D01*
X435778Y528240D01*
X435674Y528157D01*
X435568Y528077D01*
X435460Y528001D01*
X435350Y527927D01*
X435237Y527857D01*
X435123Y527790D01*
X435006Y527727D01*
X434888Y527667D01*
X434768Y527610D01*
X434646Y527557D01*
X434523Y527508D01*
X434399Y527462D01*
X434273Y527420D01*
X434146Y527382D01*
X434018Y527347D01*
X433889Y527316D01*
X433760Y527289D01*
X433629Y527266D01*
X433498Y527246D01*
X433366Y527231D01*
X433234Y527219D01*
X433102Y527211D01*
X432969Y527207D01*
X432837Y527207D01*
X432704Y527211D01*
X432572Y527219D01*
X432440Y527231D01*
X432308Y527246D01*
X432177Y527266D01*
X432046Y527289D01*
X431917Y527316D01*
X431788Y527347D01*
X431660Y527382D01*
X431533Y527420D01*
X431407Y527462D01*
X431283Y527508D01*
X431160Y527557D01*
X431038Y527610D01*
X430918Y527667D01*
X430800Y527727D01*
X430683Y527790D01*
X430569Y527857D01*
X430456Y527927D01*
X430346Y528001D01*
X430238Y528077D01*
X430132Y528157D01*
X430028Y528240D01*
X429927Y528326D01*
X429829Y528415D01*
X429733Y528506D01*
X429640Y528601D01*
X429550Y528698D01*
X429463Y528798D01*
X429378Y528900D01*
X429297Y529005D01*
X429219Y529112D01*
X429143Y529221D01*
X429072Y529332D01*
X429003Y529446D01*
X428938Y529561D01*
X428876Y529679D01*
X428818Y529798D01*
X428763Y529919D01*
X428712Y530041D01*
X428664Y530165D01*
X428620Y530290D01*
X428580Y530416D01*
X428544Y530544D01*
X428511Y530672D01*
X428482Y530801D01*
X428457Y530932D01*
X428436Y531062D01*
X428418Y531194D01*
X428405Y531326D01*
X428395Y531458D01*
X428389Y531590D01*
X428387Y531723D01*
X428387Y536238D01*
X428389Y536415D01*
X428396Y536593D01*
X428407Y536770D01*
X428422Y536946D01*
X428441Y537122D01*
X428465Y537298D01*
X428493Y537473D01*
X428526Y537648D01*
X428563Y537821D01*
X428604Y537994D01*
X428649Y538165D01*
X428698Y538335D01*
X428752Y538504D01*
X428809Y538672D01*
X428871Y538838D01*
X428937Y539003D01*
X429007Y539166D01*
X429081Y539327D01*
X429158Y539486D01*
X429240Y539644D01*
X429326Y539799D01*
X429415Y539952D01*
X429508Y540103D01*
X429605Y540252D01*
X429705Y540398D01*
X429809Y540542D01*
X429916Y540683D01*
X430027Y540821D01*
X430141Y540957D01*
X430259Y541090D01*
X430379Y541220D01*
X430503Y541347D01*
X430630Y541471D01*
X430760Y541591D01*
X430893Y541709D01*
X431028Y541823D01*
X431167Y541934D01*
X431308Y542041D01*
X431452Y542145D01*
X431598Y542245D01*
X431747Y542342D01*
X431898Y542435D01*
X432051Y542524D01*
X432206Y542610D01*
X432364Y542692D01*
X432523Y542769D01*
X432684Y542843D01*
X432847Y542913D01*
X433012Y542979D01*
X433178Y543041D01*
X433346Y543098D01*
X433515Y543152D01*
X433685Y543201D01*
X433856Y543246D01*
X434029Y543287D01*
X434202Y543324D01*
X434377Y543357D01*
X434552Y543385D01*
X434728Y543409D01*
X434904Y543428D01*
X435080Y543443D01*
X435257Y543454D01*
X435435Y543461D01*
X435612Y543463D01*
D10*
X812600Y596900D02*
X921200Y596900D01*
X921200Y1000000D02*
X812600Y1000000D01*
X901700Y999350D02*
X901700Y597550D01*
X898508Y622900D01*
X904892Y622900D01*
X901700Y597550D01*
X900400Y622900D01*
X903000Y622900D02*
X901700Y597550D01*
X899100Y622900D01*
X904300Y622900D02*
X901700Y597550D01*
X898508Y974000D02*
X901700Y999350D01*
X898508Y974000D02*
X904892Y974000D01*
X901700Y999350D01*
X900400Y974000D01*
X903000Y974000D02*
X901700Y999350D01*
X899100Y974000D01*
X904300Y974000D02*
X901700Y999350D01*
D11*
X878937Y771004D02*
X891581Y767391D01*
X891581Y776422D01*
X887968Y773713D02*
X895193Y773713D01*
X887065Y783023D02*
X886745Y783027D01*
X886426Y783038D01*
X886106Y783057D01*
X885788Y783084D01*
X885470Y783118D01*
X885153Y783160D01*
X884837Y783210D01*
X884522Y783267D01*
X884209Y783331D01*
X883897Y783403D01*
X883587Y783482D01*
X883280Y783569D01*
X882974Y783663D01*
X882671Y783764D01*
X882370Y783873D01*
X882072Y783988D01*
X881776Y784111D01*
X881484Y784241D01*
X881195Y784378D01*
X881194Y784378D02*
X881086Y784417D01*
X880979Y784460D01*
X880874Y784506D01*
X880771Y784556D01*
X880669Y784610D01*
X880569Y784667D01*
X880471Y784728D01*
X880375Y784792D01*
X880282Y784859D01*
X880191Y784929D01*
X880102Y785003D01*
X880016Y785079D01*
X879933Y785159D01*
X879852Y785241D01*
X879774Y785326D01*
X879700Y785413D01*
X879628Y785504D01*
X879559Y785596D01*
X879494Y785691D01*
X879432Y785788D01*
X879373Y785887D01*
X879318Y785988D01*
X879267Y786091D01*
X879219Y786196D01*
X879174Y786302D01*
X879133Y786409D01*
X879096Y786518D01*
X879063Y786629D01*
X879034Y786740D01*
X879008Y786852D01*
X878986Y786965D01*
X878969Y787079D01*
X878955Y787193D01*
X878945Y787308D01*
X878939Y787423D01*
X878937Y787538D01*
X878939Y787653D01*
X878945Y787768D01*
X878955Y787883D01*
X878969Y787997D01*
X878986Y788111D01*
X879008Y788224D01*
X879034Y788336D01*
X879063Y788448D01*
X879096Y788558D01*
X879133Y788667D01*
X879174Y788775D01*
X879219Y788881D01*
X879267Y788986D01*
X879318Y789088D01*
X879374Y789190D01*
X879432Y789289D01*
X879494Y789386D01*
X879560Y789481D01*
X879628Y789573D01*
X879700Y789663D01*
X879774Y789751D01*
X879852Y789836D01*
X879933Y789918D01*
X880016Y789997D01*
X880102Y790074D01*
X880191Y790147D01*
X880282Y790218D01*
X880376Y790285D01*
X880471Y790349D01*
X880569Y790410D01*
X880669Y790467D01*
X880771Y790520D01*
X880875Y790571D01*
X880980Y790617D01*
X881087Y790660D01*
X881195Y790699D01*
X881195Y790698D02*
X881484Y790835D01*
X881776Y790965D01*
X882072Y791088D01*
X882370Y791203D01*
X882671Y791312D01*
X882974Y791413D01*
X883280Y791507D01*
X883587Y791594D01*
X883897Y791673D01*
X884209Y791745D01*
X884522Y791809D01*
X884837Y791866D01*
X885153Y791916D01*
X885470Y791958D01*
X885788Y791992D01*
X886106Y792019D01*
X886426Y792038D01*
X886745Y792049D01*
X887065Y792053D01*
X887065Y783023D02*
X887385Y783027D01*
X887704Y783038D01*
X888024Y783057D01*
X888342Y783084D01*
X888660Y783118D01*
X888977Y783160D01*
X889293Y783210D01*
X889608Y783267D01*
X889921Y783331D01*
X890233Y783403D01*
X890543Y783482D01*
X890850Y783569D01*
X891156Y783663D01*
X891459Y783764D01*
X891760Y783873D01*
X892058Y783988D01*
X892354Y784111D01*
X892646Y784241D01*
X892935Y784378D01*
X892936Y784377D02*
X893044Y784416D01*
X893151Y784459D01*
X893256Y784505D01*
X893360Y784556D01*
X893462Y784609D01*
X893562Y784666D01*
X893660Y784727D01*
X893755Y784791D01*
X893849Y784858D01*
X893940Y784929D01*
X894029Y785002D01*
X894115Y785079D01*
X894198Y785158D01*
X894279Y785240D01*
X894357Y785325D01*
X894431Y785413D01*
X894503Y785503D01*
X894572Y785596D01*
X894637Y785690D01*
X894699Y785787D01*
X894757Y785887D01*
X894813Y785988D01*
X894864Y786090D01*
X894912Y786195D01*
X894957Y786301D01*
X894998Y786409D01*
X895035Y786518D01*
X895068Y786628D01*
X895097Y786740D01*
X895123Y786852D01*
X895145Y786965D01*
X895162Y787079D01*
X895176Y787193D01*
X895186Y787308D01*
X895192Y787423D01*
X895194Y787538D01*
X892935Y790698D02*
X892646Y790835D01*
X892354Y790965D01*
X892058Y791088D01*
X891760Y791203D01*
X891459Y791312D01*
X891156Y791413D01*
X890850Y791507D01*
X890543Y791594D01*
X890233Y791673D01*
X889921Y791745D01*
X889608Y791809D01*
X889293Y791866D01*
X888977Y791916D01*
X888660Y791958D01*
X888342Y791992D01*
X888024Y792019D01*
X887704Y792038D01*
X887385Y792049D01*
X887065Y792053D01*
X892935Y790699D02*
X893043Y790660D01*
X893150Y790617D01*
X893255Y790571D01*
X893359Y790520D01*
X893461Y790467D01*
X893561Y790410D01*
X893659Y790349D01*
X893754Y790285D01*
X893848Y790218D01*
X893939Y790147D01*
X894028Y790074D01*
X894114Y789997D01*
X894197Y789918D01*
X894278Y789836D01*
X894356Y789751D01*
X894430Y789663D01*
X894502Y789573D01*
X894571Y789480D01*
X894636Y789386D01*
X894698Y789289D01*
X894756Y789189D01*
X894812Y789088D01*
X894863Y788985D01*
X894911Y788881D01*
X894956Y788775D01*
X894997Y788667D01*
X895034Y788558D01*
X895067Y788448D01*
X895096Y788336D01*
X895122Y788224D01*
X895144Y788111D01*
X895161Y787997D01*
X895175Y787883D01*
X895185Y787768D01*
X895191Y787653D01*
X895193Y787538D01*
X891581Y783926D02*
X882549Y791151D01*
X894290Y798028D02*
X895193Y798028D01*
X894290Y798028D02*
X894290Y798931D01*
X895193Y798931D01*
X895193Y798028D01*
X895193Y804906D02*
X895193Y809422D01*
X895191Y809555D01*
X895185Y809687D01*
X895175Y809819D01*
X895162Y809951D01*
X895144Y810083D01*
X895123Y810213D01*
X895098Y810344D01*
X895069Y810473D01*
X895036Y810601D01*
X895000Y810729D01*
X894960Y810855D01*
X894916Y810980D01*
X894868Y811104D01*
X894817Y811226D01*
X894762Y811347D01*
X894704Y811466D01*
X894642Y811584D01*
X894577Y811699D01*
X894508Y811813D01*
X894437Y811924D01*
X894361Y812033D01*
X894283Y812140D01*
X894202Y812245D01*
X894117Y812347D01*
X894030Y812447D01*
X893940Y812544D01*
X893847Y812639D01*
X893751Y812730D01*
X893653Y812819D01*
X893552Y812905D01*
X893448Y812988D01*
X893342Y813068D01*
X893234Y813144D01*
X893124Y813218D01*
X893011Y813288D01*
X892897Y813355D01*
X892780Y813418D01*
X892662Y813478D01*
X892542Y813535D01*
X892420Y813588D01*
X892297Y813637D01*
X892173Y813683D01*
X892047Y813725D01*
X891920Y813763D01*
X891792Y813798D01*
X891663Y813829D01*
X891534Y813856D01*
X891403Y813879D01*
X891272Y813899D01*
X891140Y813914D01*
X891008Y813926D01*
X890876Y813934D01*
X890743Y813938D01*
X890611Y813938D01*
X890478Y813934D01*
X890346Y813926D01*
X890214Y813914D01*
X890082Y813899D01*
X889951Y813879D01*
X889820Y813856D01*
X889691Y813829D01*
X889562Y813798D01*
X889434Y813763D01*
X889307Y813725D01*
X889181Y813683D01*
X889057Y813637D01*
X888934Y813588D01*
X888812Y813535D01*
X888692Y813478D01*
X888574Y813418D01*
X888457Y813355D01*
X888343Y813288D01*
X888230Y813218D01*
X888120Y813144D01*
X888012Y813068D01*
X887906Y812988D01*
X887802Y812905D01*
X887701Y812819D01*
X887603Y812730D01*
X887507Y812639D01*
X887414Y812544D01*
X887324Y812447D01*
X887237Y812347D01*
X887152Y812245D01*
X887071Y812140D01*
X886993Y812033D01*
X886917Y811924D01*
X886846Y811813D01*
X886777Y811699D01*
X886712Y811584D01*
X886650Y811466D01*
X886592Y811347D01*
X886537Y811226D01*
X886486Y811104D01*
X886438Y810980D01*
X886394Y810855D01*
X886354Y810729D01*
X886318Y810601D01*
X886285Y810473D01*
X886256Y810344D01*
X886231Y810213D01*
X886210Y810083D01*
X886192Y809951D01*
X886179Y809819D01*
X886169Y809687D01*
X886163Y809555D01*
X886161Y809422D01*
X878937Y810325D02*
X878937Y804906D01*
X878937Y810325D02*
X878939Y810444D01*
X878945Y810564D01*
X878955Y810683D01*
X878969Y810801D01*
X878986Y810920D01*
X879008Y811037D01*
X879033Y811154D01*
X879063Y811269D01*
X879096Y811384D01*
X879133Y811498D01*
X879173Y811610D01*
X879218Y811721D01*
X879266Y811830D01*
X879317Y811938D01*
X879372Y812044D01*
X879431Y812148D01*
X879493Y812250D01*
X879558Y812350D01*
X879627Y812448D01*
X879699Y812544D01*
X879774Y812637D01*
X879851Y812727D01*
X879932Y812815D01*
X880016Y812900D01*
X880103Y812982D01*
X880192Y813062D01*
X880284Y813138D01*
X880378Y813212D01*
X880475Y813282D01*
X880573Y813349D01*
X880674Y813413D01*
X880778Y813473D01*
X880883Y813530D01*
X880990Y813583D01*
X881098Y813633D01*
X881208Y813679D01*
X881320Y813721D01*
X881433Y813760D01*
X881547Y813795D01*
X881662Y813826D01*
X881779Y813854D01*
X881896Y813877D01*
X882013Y813897D01*
X882132Y813913D01*
X882251Y813925D01*
X882370Y813933D01*
X882489Y813937D01*
X882609Y813937D01*
X882728Y813933D01*
X882847Y813925D01*
X882966Y813913D01*
X883085Y813897D01*
X883202Y813877D01*
X883319Y813854D01*
X883436Y813826D01*
X883551Y813795D01*
X883665Y813760D01*
X883778Y813721D01*
X883890Y813679D01*
X884000Y813633D01*
X884108Y813583D01*
X884215Y813530D01*
X884320Y813473D01*
X884424Y813413D01*
X884525Y813349D01*
X884623Y813282D01*
X884720Y813212D01*
X884814Y813138D01*
X884906Y813062D01*
X884995Y812982D01*
X885082Y812900D01*
X885166Y812815D01*
X885247Y812727D01*
X885324Y812637D01*
X885399Y812544D01*
X885471Y812448D01*
X885540Y812350D01*
X885605Y812250D01*
X885667Y812148D01*
X885726Y812044D01*
X885781Y811938D01*
X885832Y811830D01*
X885880Y811721D01*
X885925Y811610D01*
X885965Y811498D01*
X886002Y811384D01*
X886035Y811269D01*
X886065Y811154D01*
X886090Y811037D01*
X886112Y810920D01*
X886129Y810801D01*
X886143Y810683D01*
X886153Y810564D01*
X886159Y810444D01*
X886161Y810325D01*
X886162Y810325D02*
X886162Y806712D01*
X882549Y820537D02*
X878937Y825053D01*
X895193Y825053D01*
X895193Y820537D02*
X895193Y829569D01*
D12*
X152400Y774900D03*
D13*
X152400Y799900D03*
D12*
X152400Y698700D03*
D13*
X152400Y723700D03*
D12*
X342700Y863600D03*
D13*
X317700Y863600D03*
D12*
X152400Y647500D03*
D13*
X152400Y622500D03*
D14*
X209296Y800100D02*
X222504Y800100D01*
X222504Y774700D02*
X209296Y774700D01*
X209296Y647700D02*
X222504Y647700D01*
X222504Y622300D02*
X209296Y622300D01*
X209296Y749300D02*
X222504Y749300D01*
X222504Y723900D02*
X209296Y723900D01*
X209296Y673100D02*
X222504Y673100D01*
X222504Y698500D02*
X209296Y698500D01*
X285496Y622300D02*
X298704Y622300D01*
X298704Y647700D02*
X285496Y647700D01*
X285496Y673100D02*
X298704Y673100D01*
X298704Y698500D02*
X285496Y698500D01*
X285496Y723900D02*
X298704Y723900D01*
X298704Y749300D02*
X285496Y749300D01*
X285496Y774700D02*
X298704Y774700D01*
X298704Y800100D02*
X285496Y800100D01*
D15*
X88900Y711200D03*
X88900Y736600D03*
X88900Y762000D03*
X88900Y787400D03*
X381000Y698500D03*
X381000Y723900D03*
X381000Y749300D03*
X381000Y774700D03*
X381000Y800100D03*
X381000Y825500D03*
X381000Y850900D03*
X381000Y876300D03*
X711200Y876300D03*
X711200Y850900D03*
X711200Y825500D03*
X711200Y800100D03*
X711200Y774700D03*
X711200Y749300D03*
X711200Y723900D03*
X711200Y698500D03*
D16*
X669544Y698500D02*
X651256Y698500D01*
X651256Y723900D02*
X669544Y723900D01*
X669544Y749300D02*
X651256Y749300D01*
X651256Y774700D02*
X669544Y774700D01*
X669544Y800100D02*
X651256Y800100D01*
X651256Y825500D02*
X669544Y825500D01*
X669544Y850900D02*
X651256Y850900D01*
X651256Y876300D02*
X669544Y876300D01*
X440944Y698500D02*
X422656Y698500D01*
X422656Y723900D02*
X440944Y723900D01*
X440944Y749300D02*
X422656Y749300D01*
X422656Y774700D02*
X440944Y774700D01*
X440944Y800100D02*
X422656Y800100D01*
X422656Y825500D02*
X440944Y825500D01*
X440944Y850900D02*
X422656Y850900D01*
X422656Y876300D02*
X440944Y876300D01*
D12*
X317700Y939800D03*
D13*
X342700Y939800D03*
D17*
X275082Y889000D02*
X258318Y889000D01*
X258318Y914400D02*
X275082Y914400D01*
X275082Y939800D02*
X258318Y939800D01*
D18*
X762000Y876300D03*
X787400Y876300D03*
X762000Y787400D03*
X787400Y787400D03*
X762000Y711200D03*
X787400Y711200D03*
D19*
X609600Y774700D03*
X609600Y698500D03*
X609600Y901700D03*
X609600Y825500D03*
X571500Y901700D03*
X571500Y825500D03*
D20*
X317700Y927300D02*
X317700Y939800D01*
X304800Y914400D02*
X266700Y914400D01*
X304800Y914400D02*
X317700Y927300D01*
X342700Y876500D02*
X342700Y863600D01*
X342700Y876500D02*
X304800Y914400D01*
X88900Y711200D02*
X127000Y673100D01*
X127000Y635000D02*
X139700Y622300D01*
X152200Y622300D01*
X152400Y622500D01*
X127000Y635000D02*
X127000Y673100D01*
X139700Y622300D02*
X165100Y596900D01*
X266700Y622300D02*
X266700Y762000D01*
X279400Y774700D01*
X292100Y774700D01*
X241300Y596900D02*
X165100Y596900D01*
X241300Y596900D02*
X266700Y622300D01*
X342700Y799900D02*
X342700Y863600D01*
X342700Y799900D02*
X317500Y774700D01*
X292100Y774700D01*
X660400Y723900D02*
X711200Y723900D01*
X787400Y711200D02*
X787400Y787400D01*
X787400Y876300D01*
X711200Y723900D02*
X749300Y685800D01*
X774700Y685800D01*
X787400Y698500D01*
X787400Y711200D01*
X660400Y723900D02*
X520700Y723900D01*
X482600Y762000D01*
X482600Y889000D01*
X457200Y914400D01*
X380600Y914400D02*
X342700Y876500D01*
X380600Y914400D02*
X457200Y914400D01*
X266700Y939800D02*
X241300Y939800D01*
X228600Y927100D01*
X228600Y863600D01*
X254000Y838200D01*
X266700Y838200D01*
X292100Y812800D01*
X292100Y800100D01*
X660400Y698500D02*
X711200Y698500D01*
X660400Y698500D02*
X609600Y698500D01*
X711200Y698500D02*
X736600Y673100D01*
X787400Y673100D01*
X800100Y685800D01*
X800100Y901700D01*
X787400Y914400D01*
X647700Y914400D01*
X635000Y927100D01*
X393700Y927100D02*
X355600Y965200D01*
X292100Y965200D01*
X266700Y939800D01*
X393700Y927100D02*
X635000Y927100D01*
X431800Y774700D02*
X381000Y774700D01*
X317500Y622300D02*
X292100Y622300D01*
X317500Y622300D02*
X330200Y635000D01*
X330200Y762000D02*
X342900Y774700D01*
X381000Y774700D01*
X330200Y762000D02*
X330200Y635000D01*
X381000Y800100D02*
X431800Y800100D01*
X381000Y800100D02*
X355600Y800100D01*
X317500Y762000D01*
X317500Y660400D02*
X304800Y647700D01*
X292100Y647700D01*
X317500Y660400D02*
X317500Y762000D01*
X215900Y800100D02*
X152600Y800100D01*
X152400Y799900D01*
X190500Y749300D02*
X215900Y749300D01*
X164900Y774900D02*
X152400Y774900D01*
X164900Y774900D02*
X190500Y749300D01*
X152600Y723900D02*
X152400Y723700D01*
X152600Y723900D02*
X215900Y723900D01*
X215900Y698500D02*
X152600Y698500D01*
X152400Y698700D01*
X165100Y673100D02*
X152400Y660400D01*
X152400Y647500D01*
X165100Y673100D02*
X215900Y673100D01*
X381000Y876300D02*
X431800Y876300D01*
X431800Y850900D02*
X381000Y850900D01*
X381000Y825500D02*
X431800Y825500D01*
X431800Y749300D02*
X381000Y749300D01*
X381000Y723900D02*
X431800Y723900D01*
X431800Y698500D02*
X381000Y698500D01*
X660400Y876300D02*
X711200Y876300D01*
X711200Y850900D02*
X660400Y850900D01*
X660400Y800100D02*
X711200Y800100D01*
X660400Y800100D02*
X596900Y800100D01*
X571500Y825500D01*
X660400Y774700D02*
X711200Y774700D01*
X711200Y749300D02*
X660400Y749300D01*
X609600Y774700D02*
X584200Y774700D01*
X546100Y812800D01*
X546100Y850900D01*
X571500Y876300D01*
X622300Y876300D01*
X647700Y901700D01*
X736600Y901700D01*
X762000Y876300D01*
X711200Y825500D02*
X660400Y825500D01*
X609600Y825500D01*
M02*
